<svg xmlns="http://www.w3.org/2000/svg" width="256" height="256" viewBox="0 0 100 100"><rect width="100" height="100" rx="20" fill="#ffffff"></rect><path fill="#c3ab8d" d="M69.16 21.68L69.16 21.68Q68.84 24.48 68.72 27.12Q68.60 29.76 68.60 31.12L68.60 31.12Q68.60 32.56 68.68 33.88Q68.76 35.20 68.84 36.08L68.84 36.08L67 36.08Q66.52 31.36 65.64 28.60Q64.76 25.84 62.64 24.68Q60.52 23.52 56.28 23.52L56.28 23.52L49.64 23.52Q46.92 23.52 45.52 23.96Q44.12 24.40 43.64 25.80Q43.16 27.20 43.16 30.16L43.16 30.16L43.16 69.84Q43.16 72.72 43.64 74.16Q44.12 75.60 45.52 76.04Q46.92 76.48 49.64 76.48L49.64 76.48L55.48 76.48Q60.52 76.48 63.12 75.12Q65.72 73.76 66.88 70.68Q68.04 67.60 68.60 62.32L68.60 62.32L70.44 62.32Q70.20 64.48 70.20 68.08L70.20 68.08Q70.20 69.60 70.32 72.44Q70.44 75.28 70.76 78.32L70.76 78.32Q66.68 78.16 61.56 78.12Q56.44 78.08 52.44 78.08L52.44 78.08Q50.04 78.08 46.08 78.08Q42.12 78.08 37.64 78.12Q33.16 78.16 29.24 78.32L29.24 78.32L29.24 76.72Q31.96 76.56 33.36 76.08Q34.76 75.60 35.24 74.16Q35.72 72.72 35.72 69.84L35.72 69.84L35.72 30.16Q35.72 27.20 35.24 25.80Q34.76 24.40 33.36 23.88Q31.96 23.36 29.24 23.28L29.24 23.28L29.24 21.68Q33.16 21.76 37.64 21.84Q42.12 21.92 46.08 21.92Q50.04 21.92 52.44 21.92L52.44 21.92Q56.12 21.92 60.80 21.88Q65.48 21.84 69.16 21.68ZM40.76 49.04L55.40 49.04Q55.40 49.04 55.40 49.84Q55.40 50.64 55.40 50.64L55.40 50.64L40.76 50.64Q40.76 50.64 40.76 49.84Q40.76 49.04 40.76 49.04L40.76 49.04ZM55.88 38.48L57.72 38.48Q57.40 43.04 57.44 45.44Q57.48 47.84 57.48 49.84L57.48 49.84Q57.48 51.84 57.56 54.24Q57.64 56.64 57.96 61.20L57.96 61.20L56.12 61.20Q55.80 58.64 55.36 56.20Q54.92 53.76 53.44 52.20Q51.96 50.64 48.44 50.64L48.44 50.64L48.44 49.04Q51.96 49.04 53.36 47.20Q54.76 45.36 55.16 42.88Q55.56 40.40 55.88 38.48L55.88 38.48Z"></path></svg>